<svg xmlns="http://www.w3.org/2000/svg" width="25" height="25" viewBox="0 0 25 25">
    <path fill="#E6792C" fill-rule="nonzero" d="M19.913 24.776c-1.031 0-2.276-.259-3.646-.775-3.001-1.132-6.267-3.369-9.195-6.297-2.93-2.929-5.166-6.196-6.299-9.197-1.029-2.73-1.031-4.97-.006-5.994.148-.148.298-.306.453-.47C2.156 1.06 3.213-.048 4.615.002c.966.04 1.902.64 2.86 1.832 2.832 3.522 1.555 4.777.078 6.232l-.261.258c-.242.242-.699 1.361 3.55 5.61 1.386 1.386 2.569 2.401 3.514 3.015.595.387 1.659.972 2.096.535l.262-.265c1.454-1.474 2.709-2.747 6.228.083 1.192.958 1.791 1.893 1.831 2.86.058 1.401-1.058 2.461-2.043 3.396-.163.155-.32.305-.468.452-.51.51-1.324.766-2.35.766zM4.515.833c-.996 0-1.895.947-2.69 1.785-.16.168-.316.331-.468.484-.764.763-.687 2.769.196 5.111 1.092 2.894 3.261 6.055 6.109 8.903 2.846 2.846 6.006 5.015 8.9 6.106 2.343.885 4.349.96 5.111.197.153-.152.316-.307.485-.466.855-.814 1.826-1.735 1.784-2.758-.03-.703-.541-1.458-1.521-2.246-2.933-2.358-3.753-1.526-5.113-.147l-.266.27c-.65.65-1.706.506-3.14-.425-.994-.647-2.222-1.699-3.649-3.126-3.526-3.525-4.653-5.683-3.55-6.789l.266-.262c1.383-1.36 2.217-2.18-.142-5.115-.79-.98-1.545-1.49-2.247-1.52-.022-.002-.043-.002-.065-.002z"/>
</svg>
