<svg xmlns="http://www.w3.org/2000/svg" width="17" height="25" viewBox="0 0 17 25">
    <g fill="#E6792C" fill-rule="nonzero">
        <path d="M14.522 0H1.589C.716 0 .007.71.007 1.582v21.826c0 .872.71 1.582 1.582 1.582h12.933c.872 0 1.582-.71 1.582-1.582V1.582C16.104.71 15.394 0 14.522 0zM.8 3.977H15.31v16.526H.8V3.977zM1.589.793h12.933a.79.79 0 0 1 .789.79v1.865H.8V1.582a.79.79 0 0 1 .789-.79zm12.933 23.404H1.589a.79.79 0 0 1-.79-.79v-2.375h14.512v2.376a.79.79 0 0 1-.79.79z"/>
        <path d="M8.055 21.382a1.3 1.3 0 0 0-1.298 1.299 1.3 1.3 0 0 0 1.298 1.298 1.3 1.3 0 0 0 1.299-1.298 1.3 1.3 0 0 0-1.299-1.299zm0 2.068a.77.77 0 1 1 .002-1.54.77.77 0 0 1-.002 1.54z"/>
    </g>
</svg>
