<svg xmlns="http://www.w3.org/2000/svg" width="24" height="22" viewBox="0 0 24 22">
    <path fill="#E6792C" fill-rule="nonzero" d="M22.8 3.6h-5.2V2a2.002 2.002 0 0 0-2-2H8.4a2.002 2.002 0 0 0-2 2v1.6H1.2A1.2 1.2 0 0 0 0 4.8v8.904c.003.507.322.959.8 1.13V20.4A1.2 1.2 0 0 0 2 21.6h20a1.2 1.2 0 0 0 1.2-1.2v-5.566c.478-.171.798-.623.8-1.13V4.8a1.2 1.2 0 0 0-1.2-1.2zM7.2 2A1.2 1.2 0 0 1 8.4.8h7.2A1.2 1.2 0 0 1 16.8 2v1.6H16V2a.4.4 0 0 0-.4-.4H8.4A.4.4 0 0 0 8 2v1.6h-.8V2zm8 1.6H8.8V2.4h6.4v1.2zm7.2 16.8a.4.4 0 0 1-.4.4H2a.4.4 0 0 1-.4-.4v-5.43l8.8 1.214V17.2a1.2 1.2 0 0 0 1.2 1.2h.8a1.2 1.2 0 0 0 1.2-1.2v-1.016l8.8-1.213V20.4zm-9.6-3.2a.4.4 0 0 1-.4.4h-.8a.4.4 0 0 1-.4-.4v-2.4c0-.22.18-.4.4-.4h.8c.22 0 .4.18.4.4v2.4zm10.4-3.496a.4.4 0 0 1-.344.396l-.11.016-9.146 1.26V14.8a1.2 1.2 0 0 0-1.2-1.2h-.8a1.2 1.2 0 0 0-1.2 1.2v.577L1.144 14.1a.4.4 0 0 1-.344-.396V4.8c0-.22.18-.4.4-.4h21.6c.22 0 .4.18.4.4v8.904z"/>
</svg>
